<?xml version="1.0" standalone="no"?>
<!DOCTYPE svg PUBLIC "-//W3C//DTD SVG 1.1//EN" "http://www.w3.org/Graphics/SVG/1.1/DTD/svg11.dtd" >
<svg xmlns="http://www.w3.org/2000/svg">
<metadata></metadata>
<defs>
<font id="academy_sanslight" horiz-adv-x="1153" >
<font-face units-per-em="2048" ascent="1536" descent="-512" />
<missing-glyph horiz-adv-x="409" />
<glyph horiz-adv-x="0" />
<glyph horiz-adv-x="682" />
<glyph unicode=" "  horiz-adv-x="409" />
<glyph unicode="&#x09;" horiz-adv-x="409" />
<glyph unicode="&#xa0;" horiz-adv-x="409" />
<glyph unicode="!" horiz-adv-x="514" d="M170 66q0 35 25.5 60.5t60.5 25.5q36 0 61 -25t25 -61q0 -37 -24.5 -61.5t-61.5 -24.5q-36 0 -61 25t-25 61zM190 1464h132l-31 -1013h-68z" />
<glyph unicode="&#x22;" horiz-adv-x="665" d="M121 1366v98h119v-98l-33 -360h-55zM428 1366v98h119v-98l-33 -360h-55z" />
<glyph unicode="#" d="M98 477v86h242v336h-242v86h242v479h86v-479h301v479h86v-479h244v-86h-244v-336h244v-86h-244v-477h-86v477h-301v-477h-86v477h-242zM426 563h301v336h-301v-336z" />
<glyph unicode="$" d="M164 315l69 68q67 -47 164.5 -81t180.5 -34q91 0 167 25t125.5 79.5t49.5 129.5q0 28 -6.5 51.5t-15.5 41.5t-28 33t-34.5 25.5t-45.5 19.5t-50.5 14.5t-59 12t-62.5 9.5t-69 8q-90 11 -153 29t-114 51.5t-76.5 87t-25.5 129.5q0 117 102.5 199t266.5 92v235h96v-237 q88 -6 172.5 -35t140.5 -74l-63 -66q-59 43 -144 70t-163 27q-128 0 -216.5 -59t-88.5 -154q0 -96 71.5 -142.5t227.5 -66.5q11 -1 34 -4q44 -5 66.5 -8t63 -10t63 -13.5t55.5 -18.5t52 -26t41 -35t33.5 -45.5t19.5 -58t8 -72.5q0 -78 -32.5 -139.5t-88 -99.5t-118.5 -59.5 t-134 -27.5v-206h-96v206q-98 4 -203.5 40t-181.5 89z" />
<glyph unicode="%" horiz-adv-x="1697" d="M104 1124q0 141 100 240.5t240 99.5q141 0 240.5 -99.5t99.5 -240.5q0 -140 -99.5 -240t-240.5 -100q-140 0 -240 100t-100 240zM197 1124q0 -103 72 -175t175 -72t175.5 72t72.5 175t-72.5 175.5t-175.5 72.5t-175 -72.5t-72 -175.5zM295 -20l987 1501h107l-986 -1501 h-108zM911 319q0 141 100.5 240.5t241.5 99.5q140 0 239 -99.5t99 -240.5q0 -140 -99.5 -239.5t-238.5 -99.5q-141 0 -241.5 99.5t-100.5 239.5zM1006 319q0 -103 72 -175t175 -72t175.5 72t72.5 175t-72.5 175.5t-175.5 72.5t-175 -72.5t-72 -175.5z" />
<glyph unicode="&#x26;" horiz-adv-x="1449" d="M104 395q0 74 26.5 142t69 119t99.5 95t113.5 72.5t115.5 48.5q-55 107 -55 213q0 188 103 292t274 104q86 0 154.5 -26t114 -73.5t74 -106.5t42.5 -132h-107q-52 235 -276 235q-134 0 -202 -75t-68 -207q0 -98 52 -194.5t165 -225.5l239 -275q116 151 199 349l84 -50 q-78 -198 -217 -376l285 -324h-138l-213 246q-240 -266 -495 -266q-87 0 -165.5 27t-140 78t-97.5 131t-36 179zM209 401q0 -140 98.5 -230.5t243.5 -90.5q219 0 424 237l-281 324q-70 79 -119 156q-64 -23 -123 -56t-116.5 -81t-92 -115.5t-34.5 -143.5z" />
<glyph unicode="'" horiz-adv-x="358" d="M121 1366v98h119v-98l-33 -360h-55z" />
<glyph unicode="(" horiz-adv-x="608" d="M190 680q0 224 71 466t167 382h94q-90 -137 -155.5 -381t-65.5 -467q0 -225 67.5 -483.5t155.5 -393.5h-100q-94 137 -164 393t-70 484z" />
<glyph unicode=")" horiz-adv-x="608" d="M84 -197q88 135 155.5 393.5t67.5 483.5q0 224 -65.5 467.5t-157.5 380.5h96q96 -140 167 -382t71 -466q0 -227 -70 -483t-164 -394h-100z" />
<glyph unicode="*" horiz-adv-x="856" d="M70 1174l34 96l291 -111l-20 305h112l-24 -309l289 115l34 -96l-305 -72l199 -244l-90 -55l-166 258l-164 -258l-88 57l207 242z" />
<glyph unicode="+" d="M154 612v93h374v376h95v-376h376v-93h-376v-379h-95v379h-374z" />
<glyph unicode="," horiz-adv-x="358" d="M53 -301q90 177 107 285q-29 0 -54.5 23.5t-25.5 55.5q0 36 25.5 62.5t60.5 26.5q36 0 61 -27t25 -68q0 -139 -133 -358h-66z" />
<glyph unicode="-" horiz-adv-x="651" d="M53 612v93h543v-93h-543z" />
<glyph unicode="." horiz-adv-x="358" d="M94 66q0 35 25.5 60.5t60.5 25.5q36 0 60 -25t24 -61q0 -37 -23.5 -61.5t-60.5 -24.5q-36 0 -61 25t-25 61z" />
<glyph unicode="/" horiz-adv-x="987" d="M0 -20l883 1501h104l-883 -1501h-104z" />
<glyph unicode="0" d="M133 731q0 129 12 235.5t43 204t79.5 164.5t126 106.5t179.5 39.5q103 0 181 -39.5t127 -106t80 -165t43 -204.5t12 -235q0 -751 -441 -751q-103 0 -181 39.5t-127 106t-79.5 164.5t-42.5 204.5t-12 236.5zM238 731q0 -142 17.5 -257.5t55.5 -209t105 -145t159 -51.5 q74 0 131.5 34.5t95 94t62 145t35 181t10.5 208.5q0 142 -17.5 256.5t-55 207.5t-104.5 144.5t-159 51.5q-91 0 -158 -51.5t-104.5 -144.5t-55 -208t-17.5 -256z" />
<glyph unicode="1" d="M258 1018v80q103 0 163.5 3t114.5 18.5t80 35.5t49 66t33.5 99t22.5 144h82v-1464h-105v1018h-440z" />
<glyph unicode="2" d="M129 1028q2 191 132.5 322t322.5 131q125 0 224 -61t151.5 -161.5t52.5 -218.5q0 -65 -20 -127.5t-60.5 -123.5t-81 -109.5t-102.5 -112.5l-461 -479h739v-88h-854v96l512 547q106 113 164.5 206t58.5 185q0 153 -95.5 255t-236.5 102q-145 0 -241 -102.5t-96 -260.5 h-109z" />
<glyph unicode="3" d="M127 420v49h104v-57q0 -137 102 -238.5t242 -101.5q143 0 244 99.5t101 240.5q0 133 -102 222t-243 89h-59v92h59q134 0 223 78.5t89 202.5q0 128 -90.5 212.5t-221.5 84.5q-129 0 -221 -92t-92 -218v-51h-104v49q0 108 57 200.5t153 146t207 53.5q170 0 290 -112.5 t120 -276.5q0 -119 -65 -201t-164 -121q120 -51 194 -137.5t74 -212.5q0 -184 -131 -312t-318 -128q-188 0 -318 128t-130 312z" />
<glyph unicode="4" d="M74 334v90l731 1040h133v-1044h139v-86h-139v-334h-107v334h-757zM182 420h649v921z" />
<glyph unicode="5" d="M127 418h104q0 -157 102.5 -251.5t248.5 -94.5q140 0 248 108t108 252q0 152 -100 256.5t-256 104.5q-142 0 -265 -123l-86 14l105 780h612v-90h-530l-78 -586q28 19 37 24.5t41.5 23.5t54.5 26t57 15.5t68 7.5q198 0 321 -125t123 -320q0 -121 -62.5 -227t-168.5 -169.5 t-229 -63.5q-194 0 -324.5 124t-130.5 314z" />
<glyph unicode="6" d="M127 432q0 63 11.5 126t38.5 128t48 110.5t64 112.5t61.5 94t63.5 91l260 370h123l-269 -379l-32.5 -45.5t-39.5 -56t-37.5 -54.5t-41 -62t-34.5 -57.5t-32 -59.5q118 112 281 112q107 0 206.5 -57t162.5 -157.5t63 -215.5q0 -185 -132 -318.5t-317 -133.5 q-186 0 -317 133t-131 319zM231 424q0 -143 100.5 -247.5t243.5 -104.5q140 0 242.5 105t102.5 247q0 139 -102.5 244.5t-242.5 105.5q-143 0 -243.5 -105t-100.5 -245z" />
<glyph unicode="7" d="M100 1370v94h928v-92l-647 -1372h-123l657 1370h-815z" />
<glyph unicode="8" d="M127 406q0 127 71.5 219.5t182.5 144.5q-217 120 -217 320q0 165 120.5 278t290.5 113t290 -113t120 -278q0 -60 -19.5 -112.5t-53 -91.5t-68.5 -66.5t-76 -49.5q112 -52 184 -145t72 -219q0 -120 -60.5 -218.5t-163 -153t-225.5 -54.5q-189 0 -318.5 121.5t-129.5 304.5 zM231 401q0 -141 100 -235t244 -94q143 0 244 94t101 235q0 134 -102.5 229t-242.5 95q-142 0 -243 -95t-101 -229zM262 1100q0 -122 92 -204.5t221 -82.5q128 0 220 83t92 204q0 122 -92.5 207.5t-219.5 85.5q-128 0 -220.5 -85.5t-92.5 -207.5z" />
<glyph unicode="9" d="M127 1030q0 184 131 317.5t317 133.5q185 0 317 -133.5t132 -317.5q0 -75 -20.5 -156t-45.5 -141t-73 -140t-73.5 -117t-76.5 -109l-260 -367h-121l269 375q164 231 215 338q-118 -115 -281 -115q-107 0 -206 57t-161.5 158t-62.5 217zM229 1038q0 -141 102.5 -246.5 t243.5 -105.5t243 105.5t102 246.5q0 142 -101.5 246.5t-243.5 104.5t-244 -104.5t-102 -246.5z" />
<glyph unicode=":" horiz-adv-x="358" d="M94 66q0 35 25.5 60.5t60.5 25.5q36 0 60 -25t24 -61q0 -37 -23.5 -61.5t-60.5 -24.5q-36 0 -61 25t-25 61zM94 1012q0 35 25.5 61.5t60.5 26.5q36 0 60 -26t24 -62t-24 -60t-60 -24q-35 0 -60.5 24.5t-25.5 59.5z" />
<glyph unicode=";" horiz-adv-x="358" d="M68 -301q91 185 106 285q-32 0 -56 23t-24 56q0 36 24.5 62.5t59.5 26.5q37 0 61.5 -27t24.5 -68q0 -139 -133 -358h-63zM94 1012q0 35 25.5 61.5t60.5 26.5q36 0 60 -26t24 -62t-24 -60t-60 -24q-35 0 -60.5 24.5t-25.5 59.5z" />
<glyph unicode="&#x3c;" d="M154 606v101l845 423v-106l-749 -369l749 -354v-113z" />
<glyph unicode="=" d="M154 459v92h845v-92h-845zM154 766v92h845v-92h-845z" />
<glyph unicode="&#x3e;" d="M154 188v113l749 354l-749 369v106l845 -423v-101z" />
<glyph unicode="?" horiz-adv-x="991" d="M61 1038q2 194 115.5 318.5t302.5 124.5q191 0 295.5 -104.5t104.5 -286.5q0 -82 -33.5 -155.5t-81 -128.5t-95 -108t-81 -119t-33.5 -137h-104q0 77 33 149.5t80.5 129.5t94.5 113.5t80 123.5t33 136q0 141 -81 219t-214 78q-134 0 -221.5 -97.5t-87.5 -255.5h-107z M418 66q0 35 26.5 60.5t61.5 25.5t59.5 -25.5t24.5 -60.5q0 -37 -24.5 -61.5t-59.5 -24.5q-36 0 -62 25t-26 61z" />
<glyph unicode="@" horiz-adv-x="1671" d="M98 743q0 142 39.5 262.5t109 207t163 148t202 91t226.5 29.5q149 0 281 -47.5t233.5 -137t161 -231t59.5 -317.5q0 -199 -94.5 -335.5t-233.5 -136.5q-57 0 -99.5 37.5t-51.5 92.5q-121 -130 -295 -130q-61 0 -116 14.5t-104.5 45.5t-78.5 87t-29 132q0 74 29 131.5 t77 90.5t104.5 50t117.5 17q187 0 288 -119v115q0 150 -61.5 217t-206.5 67q-124 0 -241 -73l-48 71q122 78 299 78q182 0 267.5 -83t85.5 -267v-375q0 -56 23 -90.5t59 -34.5q56 0 107.5 64t80.5 156t29 178q0 158 -51 284.5t-139.5 206.5t-204 122t-248.5 42 q-106 0 -200.5 -25.5t-175 -79t-139 -131t-91.5 -186t-33 -238.5q0 -158 47.5 -288.5t130.5 -218t196 -135.5t244 -48q88 0 174 19t146 47l43 -60q-88 -38 -176 -60t-207 -22q-147 0 -274.5 52t-222 148.5t-148.5 242t-54 323.5zM567 557q0 -98 71.5 -153.5t172.5 -55.5 q47 0 93.5 11.5t88.5 35t68 65t26 95.5q0 73 -43.5 123.5t-104 71t-128.5 20.5q-102 0 -173 -58t-71 -155z" />
<glyph unicode="A" horiz-adv-x="1140" d="M35 0l467 1464h137l467 -1464h-115l-143 461h-555l-143 -461h-115zM319 549h502l-252 805z" />
<glyph unicode="B" horiz-adv-x="1107" d="M162 0v1464h446q164 0 275.5 -107t111.5 -267q0 -105 -51.5 -189.5t-152.5 -130.5q115 -54 179 -144t64 -210q0 -180 -121 -298t-309 -118h-442zM268 88h340q89 0 163.5 48t115.5 125t41 163q0 73 -27 130.5t-73.5 93t-104.5 53.5t-123 18h-332v-631zM268 805h332 q123 0 208 73t85 203q0 113 -84.5 203t-200.5 90h-340v-569z" />
<glyph unicode="C" horiz-adv-x="1165" d="M121 731q0 354 130 552t376 198q144 0 246 -74.5t157 -194.5l-102 -20q-42 82 -120.5 137t-180.5 55q-197 0 -297.5 -172t-100.5 -483t102.5 -483t303.5 -172q109 0 191.5 61t121.5 156l105 -19q-61 -135 -166.5 -213.5t-255.5 -78.5q-255 0 -382.5 196t-127.5 555z" />
<glyph unicode="D" horiz-adv-x="1214" d="M162 0v1464h403q138 0 241.5 -51t168.5 -147.5t97 -230t32 -304.5q0 -349 -133.5 -540t-405.5 -191h-403zM268 88h297q111 0 195 49t134.5 137.5t75.5 203t25 253.5q0 138 -25 252t-76 203t-135.5 138.5t-195.5 49.5h-295v-1286z" />
<glyph unicode="E" horiz-adv-x="997" d="M162 0v1464h747v-90h-641v-590h475v-84h-475v-612h684v-88h-790z" />
<glyph unicode="F" horiz-adv-x="997" d="M162 0v1464h784v-90h-678v-604h547v-86h-547v-684h-106z" />
<glyph unicode="G" horiz-adv-x="1185" d="M121 731q0 352 134.5 551t381.5 199q145 0 252 -75.5t162 -193.5l-103 -20q-41 81 -124.5 136.5t-186.5 55.5q-198 0 -303 -173t-105 -482q0 -311 102.5 -483t303.5 -172q172 0 256 125t84 344v106h-262v86h370v-192q0 -255 -118.5 -409t-333.5 -154q-255 0 -382.5 196 t-127.5 555z" />
<glyph unicode="H" d="M162 0v1464h106v-678h617v678h106v-1464h-106v698h-617v-698h-106z" />
<glyph unicode="I" horiz-adv-x="430" d="M162 0v1464h106v-1464h-106z" />
<glyph unicode="J" horiz-adv-x="968" d="M37 381v43h106v-29q0 -159 76.5 -242t202.5 -83q128 0 202 82t74 241v1071h109v-1083q0 -191 -105.5 -297.5t-277.5 -106.5q-174 0 -280.5 106.5t-106.5 297.5z" />
<glyph unicode="K" horiz-adv-x="1148" d="M162 0v1464h106v-987l678 987h125l-426 -608l496 -856h-127l-434 762l-312 -445v-317h-106z" />
<glyph unicode="L" horiz-adv-x="952" d="M162 0v1464h106v-1376h647v-88h-753z" />
<glyph unicode="M" horiz-adv-x="1490" d="M162 0v1464h143l438 -979l441 979h145v-1464h-104v1315l-439 -967h-86l-434 967v-1315h-104z" />
<glyph unicode="N" horiz-adv-x="1265" d="M162 0v1464h121l686 -1292v1292h104v-1464h-127l-680 1280v-1280h-104z" />
<glyph unicode="O" horiz-adv-x="1255" d="M121 731q0 125 18 235t57.5 205t98 163.5t143.5 107.5t189 39q106 0 191.5 -39t143.5 -107t97 -164t56.5 -205.5t17.5 -234.5q0 -158 -29.5 -291t-88.5 -237.5t-158 -163.5t-228 -59q-109 0 -195.5 39t-144.5 107t-96.5 164t-55 205t-16.5 236zM229 731q0 -139 23.5 -256 t70.5 -208.5t125.5 -143t180.5 -51.5q101 0 178 51.5t124.5 142.5t71 208.5t23.5 256.5q0 137 -24 253.5t-71.5 207.5t-125.5 142.5t-178 51.5t-178 -51.5t-125 -142.5t-71 -207.5t-24 -253.5z" />
<glyph unicode="P" horiz-adv-x="1122" d="M162 0v1464h405q199 0 335 -123.5t136 -316.5q0 -123 -63.5 -222t-171.5 -153.5t-238 -54.5h-297v-594h-106zM268 682h289q155 0 263 95.5t108 248.5t-108.5 250.5t-262.5 97.5h-289v-692z" />
<glyph unicode="Q" horiz-adv-x="1245" d="M121 731q0 125 18 235t57.5 205t98 163.5t143.5 107.5t189 39q106 0 191.5 -39t143.5 -107t97 -164t56.5 -205.5t17.5 -234.5q0 -226 -61.5 -401t-184.5 -260q95 -3 214 -19t206 -39v-108q-111 31 -242 53.5t-219 22.5h-217q-109 0 -195.5 39t-144.5 107t-96.5 164 t-55 205t-16.5 236zM229 731q0 -139 23.5 -256t70.5 -208.5t125.5 -143t180.5 -51.5q101 0 178 51.5t124.5 142.5t71 208.5t23.5 256.5q0 137 -24 253.5t-71.5 207.5t-125.5 142.5t-178 51.5t-178 -51.5t-125 -142.5t-71 -207.5t-24 -253.5z" />
<glyph unicode="R" horiz-adv-x="1122" d="M162 0v1464h401q126 0 229.5 -51.5t165.5 -149.5t62 -225q0 -78 -26.5 -146t-71.5 -116t-98 -82t-113 -53l385 -641h-129l-363 616h-336v-616h-106zM268 705h271q156 0 263 91t107 242q0 152 -107 244t-263 92h-271v-669z" />
<glyph unicode="S" horiz-adv-x="1067" d="M86 340l100 39q32 -125 129 -214t222 -89q134 0 221.5 81.5t87.5 215.5q0 77 -40 135.5t-103.5 97t-140 72t-153.5 69.5t-140.5 80.5t-103.5 115t-40 161.5q0 170 103 273.5t288 103.5q135 0 240.5 -79.5t150.5 -199.5l-98 -35q-34 89 -117.5 152t-185.5 63 q-120 0 -197.5 -68.5t-77.5 -193.5q0 -60 24.5 -108.5t66 -83t95.5 -64t113.5 -55.5t119.5 -53t114 -61.5t95.5 -76t66 -102t24.5 -133.5q0 -187 -118.5 -295t-303.5 -108q-152 0 -276 100t-166 260z" />
<glyph unicode="T" horiz-adv-x="1044" d="M35 1374v90h977v-90h-439v-1374h-104v1374h-434z" />
<glyph unicode="U" horiz-adv-x="1171" d="M160 422v1042h106v-1034q0 -151 94 -257.5t226 -106.5q135 0 226 97.5t91 264.5v1036h109v-1042q0 -203 -119.5 -324t-306.5 -121q-188 0 -307 120.5t-119 324.5z" />
<glyph unicode="V" horiz-adv-x="1140" d="M43 1464h115l411 -1333l412 1333h117l-469 -1464h-119z" />
<glyph unicode="W" horiz-adv-x="1980" d="M49 1464h115l362 -1333l363 1333h119l362 -1333l363 1333h116l-419 -1464h-119l-363 1294l-362 -1294h-119z" />
<glyph unicode="X" horiz-adv-x="1183" d="M39 0l477 770l-428 694h121l369 -598l364 598h123l-426 -698l475 -766h-125l-414 668l-413 -668h-123z" />
<glyph unicode="Y" horiz-adv-x="1183" d="M53 1464h123l416 -684l416 684h120l-483 -784v-680h-106v680z" />
<glyph unicode="Z" horiz-adv-x="1038" d="M61 0v88l756 1288h-717v88h834v-88l-756 -1288h799v-88h-916z" />
<glyph unicode="[" horiz-adv-x="620" d="M229 -385v2044h349v-90h-248v-1868h250v-86h-351z" />
<glyph unicode="\" horiz-adv-x="987" d="M0 1481h104l883 -1501h-104z" />
<glyph unicode="]" horiz-adv-x="620" d="M41 -299h250v1868h-248v90h348v-2044h-350v86z" />
<glyph unicode="^" horiz-adv-x="468" d="M10 1016l154 448h131l162 -448h-92l-134 366l-129 -366h-92z" />
<glyph unicode="_" horiz-adv-x="876" d="M0 -186h877v-95h-877v95z" />
<glyph unicode="`" horiz-adv-x="389" d="M39 1464h127l184 -256h-102z" />
<glyph unicode="a" horiz-adv-x="1038" d="M66 311q0 87 34 155t90.5 107.5t123 59.5t139.5 20q234 0 348 -151v172q0 179 -75 259.5t-247 80.5q-155 0 -289 -84l-53 80q57 36 150 63t202 27q213 0 314.5 -100t101.5 -314v-686h-104v141q-43 -79 -143 -120t-205 -41q-57 0 -109.5 10t-104 34.5t-89.5 61.5t-61 95 t-23 130zM174 313q0 -119 85 -185.5t208 -66.5q57 0 113 14t107 42t82.5 78t31.5 114q0 66 -30 117.5t-79.5 81t-107 44.5t-117.5 15q-124 0 -208.5 -69t-84.5 -185z" />
<glyph unicode="b" horiz-adv-x="1071" d="M133 0v1464l105 72v-588q47 57 135.5 104.5t189.5 47.5q178 0 286.5 -140t108.5 -419q0 -142 -32.5 -251t-89 -176t-130 -100.5t-159.5 -33.5q-94 0 -177 49t-132 110v-139h-105zM238 225q52 -60 130.5 -109.5t168.5 -49.5q140 0 228.5 118t88.5 355q0 125 -25 219 t-70 148t-100.5 80t-121.5 26q-90 0 -172.5 -50.5t-126.5 -105.5v-631z" />
<glyph unicode="c" horiz-adv-x="944" d="M113 545q0 156 26 264.5t78.5 172t124.5 91t172 27.5q251 0 363 -207l-103 -21q-39 60 -107 98t-153 38q-154 0 -225.5 -105.5t-71.5 -359.5q0 -132 19.5 -224t58.5 -146.5t92 -78.5t127 -24q87 0 156.5 36t107.5 91l103 -19q-114 -198 -367 -198q-77 0 -138 17.5 t-111 58.5t-83 106t-51 161t-18 222z" />
<glyph unicode="d" horiz-adv-x="1071" d="M113 535q0 149 31 260t86.5 176.5t127 97t158.5 31.5q101 0 185.5 -47t132.5 -105v516l104 72v-1536h-104v139q-49 -61 -134.5 -110t-187.5 -49q-69 0 -128 19t-109.5 61.5t-86 106.5t-55.5 157.5t-20 210.5zM217 537q0 -471 318 -471q90 0 168 50t131 111v627 q-39 54 -123.5 106t-175.5 52q-53 0 -98.5 -14t-87 -48t-70 -87t-45.5 -136t-17 -190z" />
<glyph unicode="e" horiz-adv-x="1028" d="M113 545q0 287 108.5 421t300.5 134q93 0 163 -30t123 -97t80 -181.5t27 -275.5h-698q3 -229 92 -336.5t232 -107.5q88 0 156 34.5t110 92.5l100 -21q-116 -198 -368 -198q-75 0 -138 18.5t-117 61t-91.5 107.5t-58.5 160.5t-21 217.5zM217 598h594q-6 410 -295 410 q-283 0 -299 -410z" />
<glyph unicode="f" horiz-adv-x="565" d="M18 991v90h168v101q0 183 73 261.5t230 78.5q37 0 105 -15v-92q-51 15 -115 15q-99 0 -143.5 -56.5t-44.5 -187.5v-105h229v-90h-229v-991h-105v991h-168z" />
<glyph unicode="g" horiz-adv-x="1071" d="M113 539q0 283 111.5 422t291.5 139q101 0 185.5 -47t132.5 -105v133h104v-1056q0 -197 -106.5 -310.5t-290.5 -113.5q-249 0 -377 206l102 21q110 -135 275 -135q136 0 214.5 86.5t78.5 220.5v145q-50 -60 -135.5 -108.5t-186.5 -48.5q-86 0 -157.5 32t-126 97 t-85 172.5t-30.5 249.5zM217 541q0 -123 24 -214.5t68 -145.5t100 -80.5t126 -26.5q89 0 167.5 50.5t131.5 111.5v618q-39 54 -123.5 106t-175.5 52q-66 0 -121.5 -25.5t-100.5 -79.5t-70.5 -147.5t-25.5 -218.5z" />
<glyph unicode="h" horiz-adv-x="1040" d="M133 0v1464l105 72v-582q50 51 152 98.5t198 47.5q158 0 238.5 -91t80.5 -266v-743h-104v758q0 124 -63 189t-177 65q-85 0 -184 -49t-141 -91v-872h-105z" />
<glyph unicode="i" horiz-adv-x="391" d="M121 1407q0 30 22 52t52 22t51.5 -22t21.5 -52q0 -31 -21 -52.5t-52 -21.5t-52.5 21.5t-21.5 52.5zM143 0v1081h105v-1081h-105z" />
<glyph unicode="j" horiz-adv-x="391" d="M121 1407q0 30 22 52t52 22t51.5 -22t21.5 -52q0 -31 -21 -52.5t-52 -21.5t-52.5 21.5t-21.5 52.5zM143 -383v1464h105v-1464h-105z" />
<glyph unicode="k" horiz-adv-x="991" d="M143 0v1464l105 72v-1094l571 639h129l-407 -442l448 -639h-123l-395 563l-223 -244v-319h-105z" />
<glyph unicode="l" horiz-adv-x="391" d="M143 0v1464l105 72v-1536h-105z" />
<glyph unicode="m" horiz-adv-x="1687" d="M133 0v1081h105v-127q50 52 149.5 99t194.5 47q217 0 284 -172q67 73 171 122.5t202 49.5q315 0 315 -357v-743h-104v758q0 125 -60.5 189.5t-175.5 64.5q-84 0 -177.5 -47t-147.5 -99q6 -65 6 -133v-733h-104v758q0 125 -60.5 189.5t-173.5 64.5q-85 0 -180.5 -48.5 t-138.5 -91.5v-872h-105z" />
<glyph unicode="n" horiz-adv-x="1040" d="M133 0v1081h105v-127q50 51 152 98.5t198 47.5q158 0 238.5 -91t80.5 -266v-743h-104v758q0 124 -63 189t-177 65q-85 0 -184 -49t-141 -91v-872h-105z" />
<glyph unicode="o" horiz-adv-x="1083" d="M102 545q0 125 25.5 224.5t77 174.5t137 115.5t199.5 40.5q115 0 200 -40.5t136.5 -115.5t76.5 -174.5t25 -224.5q0 -265 -106.5 -415t-331.5 -150q-224 0 -331.5 150.5t-107.5 414.5zM205 541q0 -140 34.5 -244t111.5 -166.5t190 -62.5t190 62.5t111.5 166.5t34.5 244 q0 217 -84 344t-252 127t-252 -127t-84 -344z" />
<glyph unicode="p" horiz-adv-x="1071" d="M133 -383v1464h105v-133q47 57 135.5 104.5t189.5 47.5q178 0 286.5 -140t108.5 -419q0 -142 -32.5 -251t-89 -176t-130 -100.5t-159.5 -33.5q-94 0 -177 49t-132 110v-522h-105zM238 225q52 -60 130.5 -109.5t168.5 -49.5q140 0 228.5 118t88.5 355q0 125 -25 219 t-70 148t-100.5 80t-121.5 26q-90 0 -172.5 -50.5t-126.5 -105.5v-631z" />
<glyph unicode="q" horiz-adv-x="1071" d="M113 535q0 149 31 260t86.5 176.5t127 97t158.5 31.5q101 0 185.5 -47t132.5 -105v133h104v-1464h-104v520q-50 -60 -135.5 -108.5t-186.5 -48.5q-69 0 -128 19t-109.5 61.5t-86 106.5t-55.5 157.5t-20 210.5zM217 537q0 -126 24 -219t68 -147t100 -79.5t126 -25.5 q90 0 168 50t131 111v627q-39 54 -123.5 106t-175.5 52q-67 0 -122 -25t-100 -78.5t-70.5 -148t-25.5 -223.5z" />
<glyph unicode="r" horiz-adv-x="645" d="M133 0v1081h105v-223q83 236 317 236q43 0 68 -4q0 -18 -1 -55t-1 -54q-51 14 -97 14q-115 0 -200.5 -96t-85.5 -221v-678h-105z" />
<glyph unicode="s" horiz-adv-x="909" d="M61 106l70 72q137 -115 311 -115q136 0 221 59.5t85 164.5q0 49 -14.5 84t-37.5 57.5t-67.5 38t-88.5 24t-116 17.5q-172 23 -258 88.5t-86 204.5q0 137 104 218t281 81q223 0 340 -105l-70 -75q-46 41 -117 66.5t-153 25.5q-122 0 -200.5 -55.5t-78.5 -149.5 q0 -101 65.5 -147t233.5 -66q69 -8 118.5 -19t99 -31.5t79.5 -50.5t49 -77t19 -109q0 -162 -114 -246t-300 -84q-111 0 -210.5 35t-164.5 94z" />
<glyph unicode="t" horiz-adv-x="573" d="M18 991v90h205v262l105 35v-297h227v-90h-227v-991h-105v991h-205z" />
<glyph unicode="u" horiz-adv-x="1030" d="M133 336v745h105v-757q0 -125 62.5 -190.5t176.5 -65.5q81 0 178 42.5t138 79.5v891h104v-1081h-104v121q-57 -51 -152.5 -95t-187.5 -44q-158 0 -239 90t-81 264z" />
<glyph unicode="v" horiz-adv-x="962" d="M43 1081h113l325 -944l334 944h105l-392 -1081h-96z" />
<glyph unicode="w" horiz-adv-x="1538" d="M41 1081h113l276 -944l295 944h94l287 -944l287 944h102l-340 -1081h-98l-289 918l-289 -918h-98z" />
<glyph unicode="x" horiz-adv-x="991" d="M18 0l400 565l-361 516h125l303 -436l297 436h119l-356 -518l397 -563h-125l-340 483l-338 -483h-121z" />
<glyph unicode="y" horiz-adv-x="962" d="M43 1081h113l325 -946l334 946h105l-525 -1464h-102l137 385z" />
<glyph unicode="z" horiz-adv-x="860" d="M49 0v98l641 893h-618v90h731v-100l-641 -893h641v-88h-754z" />
<glyph unicode="{" horiz-adv-x="638" d="M78 598v98q87 0 141.5 81t54.5 212v307q0 174 82.5 269.5t243.5 95.5v-92q-225 0 -225 -281v-303q0 -73 -15.5 -133t-42.5 -100t-54.5 -65.5t-59.5 -41.5q71 -36 121.5 -116.5t50.5 -217.5v-321q0 -278 225 -281v-92q-162 0 -244 95t-82 270v323q0 131 -54.5 212 t-141.5 81z" />
<glyph unicode="|" horiz-adv-x="724" d="M313 -385v1866h88v-1866h-88z" />
<glyph unicode="}" horiz-adv-x="638" d="M39 -291q225 3 225 281v321q0 137 50.5 217.5t121.5 116.5q-32 16 -59.5 41.5t-54.5 65.5t-42.5 100t-15.5 133v303q0 281 -225 281v92q161 0 243.5 -95.5t82.5 -269.5v-307q0 -131 54.5 -212t141.5 -81v-98q-87 0 -141.5 -81t-54.5 -212v-323q0 -175 -82 -270t-244 -95 v92z" />
<glyph unicode="~" d="M111 594q30 106 98.5 176t165.5 70q46 0 108 -27t112 -60t105.5 -60t90.5 -27q37 0 65.5 13.5t49.5 40.5t34 52t29 64h78q-31 -109 -98 -182.5t-163 -73.5q-41 0 -101 27.5t-110.5 60.5t-108 60.5t-95.5 27.5q-69 0 -112 -44.5t-73 -117.5h-75z" />
<glyph unicode="&#xa1;" horiz-adv-x="514" d="M170 1399q0 36 25 61t61 25q37 0 61.5 -24.5t24.5 -61.5q0 -36 -25 -61t-61 -25q-35 0 -60.5 25.5t-25.5 60.5zM190 0l33 1014h68l31 -1014h-132z" />
<glyph unicode="&#xa2;" d="M133 723q0 221 143 378t363 179v260h96v-258q198 -11 346 -139l-94 -47q-126 98 -285 98q-201 0 -336 -136.5t-135 -334.5q0 -125 56 -232t164 -174t247 -67q98 0 166 27t129 77l94 -47q-143 -134 -352 -145v-182h-96v184q-226 20 -366 176t-140 383z" />
<glyph unicode="&#xa3;" d="M201 0v926q0 157 26 264.5t79.5 171.5t128.5 91.5t181 27.5q265 0 377 -207l-104 -21q-38 60 -108.5 98t-164.5 38q-79 0 -134.5 -21.5t-97 -73t-61.5 -143.5t-20 -227v-172h500v-95h-500v-569h680v-88h-782z" />
<glyph unicode="&#xa5;" d="M76 1464h123l376 -684l379 684h123l-411 -723h331v-94h-364v-213h364v-94h-364v-340h-113v340h-368v94h368v213h-368v94h335z" />
<glyph unicode="&#xa6;" horiz-adv-x="724" d="M313 -385v885h88v-885h-88zM313 651v830h88v-830h-88z" />
<glyph unicode="&#xa7;" d="M98 590q0 78 62.5 158.5t161.5 125.5q-170 90 -170 281q0 142 119.5 234t291.5 92q95 0 191 -28t170 -79l-66 -65q-65 39 -145 63.5t-150 24.5q-134 0 -218.5 -71t-84.5 -175q0 -61 27 -105.5t72.5 -71.5t105 -46.5t124.5 -34.5t130.5 -31t125 -40t105 -58t72.5 -89.5 t27 -129.5q0 -107 -57.5 -184.5t-151.5 -124.5q172 -90 172 -265q0 -74 -28.5 -137t-74 -105t-104 -71.5t-118 -43t-116.5 -13.5q-244 0 -419 118l73 70q63 -47 156 -76.5t184 -29.5q136 0 241 80.5t105 199.5q0 59 -28 103t-75 71t-108 47t-128.5 36t-134.5 33.5t-128 44 t-108 62.5t-75 94.5t-28 135.5zM203 586q0 -54 24 -95.5t60.5 -67t94 -47t108.5 -34t121 -30.5t116 -33q98 31 159.5 101.5t61.5 156.5q0 55 -23 96t-58 64.5t-90 43.5t-104 30t-116.5 26t-112.5 30q-98 -22 -169.5 -94t-71.5 -147z" />
<glyph unicode="&#xa8;" horiz-adv-x="487" d="M41 1419q0 29 20.5 49.5t49.5 20.5t49 -20.5t20 -49.5t-20 -49t-49 -20t-49.5 20t-20.5 49zM305 1419q0 29 20.5 49.5t49.5 20.5t50 -20.5t21 -49.5t-21 -49t-50 -20t-49.5 20t-20.5 49z" />
<glyph unicode="&#xa9;" horiz-adv-x="1624" d="M61 729q0 153 59.5 292.5t160 240t239 160t291.5 59.5t292 -59.5t240 -160t160.5 -240t59.5 -292.5q0 -152 -59.5 -291t-160.5 -239t-240 -159.5t-292 -59.5t-291.5 59.5t-239 159.5t-160 239t-59.5 291zM158 731q0 -138 51 -261.5t137.5 -211t208 -139t256.5 -51.5 q183 0 333 87t236 239t86 337t-86 337.5t-236 239.5t-333 87q-135 0 -256.5 -51.5t-208 -139.5t-137.5 -211.5t-51 -261.5zM440 733q0 154 113 264.5t268 110.5q120 0 216 -66t139 -174l-86 -22q-31 80 -103.5 129t-165.5 49q-122 0 -206.5 -83.5t-84.5 -205.5 q0 -124 84.5 -209.5t206.5 -85.5q92 0 165 50t104 131l86 -25q-44 -105 -140 -171.5t-215 -66.5q-156 0 -268.5 110t-112.5 265z" />
<glyph unicode="&#xaa;" horiz-adv-x="778" d="M76 956q0 114 78.5 173t185.5 59q145 0 219 -88v94q0 114 -48 165.5t-155 51.5q-91 0 -192 -59l-45 63q102 66 246 66t212 -66t68 -213v-454h-86v77q-36 -43 -94.5 -66.5t-124.5 -23.5q-49 0 -93.5 11.5t-84 35.5t-63 69t-23.5 105zM94 567v70h551v-70h-551zM166 958 q0 -73 54 -114t130 -41q49 0 94.5 14.5t80 50.5t34.5 88q0 79 -64 120.5t-145 41.5q-77 0 -130.5 -44t-53.5 -116z" />
<glyph unicode="&#xab;" horiz-adv-x="727" d="M37 594l229 412h103l-219 -406l219 -412h-103zM354 594l230 412h102l-219 -406l219 -412h-102z" />
<glyph unicode="&#xac;" d="M154 612v93h845v-472h-94v379h-751z" />
<glyph unicode="&#xad;" horiz-adv-x="651" d="M53 612v93h543v-93h-543z" />
<glyph unicode="&#xae;" horiz-adv-x="1624" d="M61 729q0 153 59.5 292.5t160 240t239 160t291.5 59.5t292 -59.5t240 -160t160.5 -240t59.5 -292.5q0 -152 -59.5 -291t-160.5 -239t-240 -159.5t-292 -59.5t-291.5 59.5t-239 159.5t-160 239t-59.5 291zM158 731q0 -138 51 -261.5t137.5 -211t208 -139t256.5 -51.5 q183 0 333 87t236 239t86 337t-86 337.5t-236 239.5t-333 87q-135 0 -256.5 -51.5t-208 -139.5t-137.5 -211.5t-51 -261.5zM553 369v723h332q97 0 165 -68t68 -164q0 -75 -43.5 -131.5t-107.5 -81.5l174 -278h-103l-161 264h-238v-264h-86zM639 702h235q67 0 111.5 43.5 t44.5 110.5q0 68 -45 114t-111 46h-235v-314z" />
<glyph unicode="&#xaf;" horiz-adv-x="659" d="M53 1331v86h553v-86h-553z" />
<glyph unicode="&#xb0;" horiz-adv-x="872" d="M96 1124q0 141 100 240.5t240 99.5q141 0 240.5 -99.5t99.5 -240.5q0 -140 -99.5 -240t-240.5 -100q-140 0 -240 100t-100 240zM188 1124q0 -103 72.5 -175t175.5 -72t175.5 72t72.5 175t-72.5 175.5t-175.5 72.5t-175.5 -72.5t-72.5 -175.5z" />
<glyph unicode="&#xb1;" d="M154 0v92h845v-92h-845zM154 612v93h374v376h95v-376h376v-93h-376v-379h-95v379h-374z" />
<glyph unicode="&#xb2;" horiz-adv-x="720" d="M90 1192q0 122 77 205.5t189 83.5q114 0 187 -76.5t73 -187.5q0 -69 -41 -131.5t-110 -129.5l-234 -229h390v-78h-510v68l295 299q54 56 84 103.5t30 99.5q0 80 -48.5 130t-121.5 50q-70 0 -118 -58t-48 -149h-94z" />
<glyph unicode="&#xb3;" horiz-adv-x="720" d="M88 897v39h92v-45q0 -68 51.5 -119t118.5 -51q74 0 124 44.5t50 115.5q0 64 -52.5 109.5t-121.5 45.5h-57v84h57q62 0 110 41.5t48 100.5q0 60 -48 99.5t-110 39.5q-59 0 -105 -46t-46 -106v-45h-95v39q0 99 73.5 168.5t172.5 69.5q103 0 175.5 -64t72.5 -162 q0 -114 -113 -174q59 -27 96 -82t37 -112q0 -108 -77 -178t-191 -70q-109 0 -185.5 75t-76.5 183z" />
<glyph unicode="&#xb4;" horiz-adv-x="389" d="M39 1208l184 256h127l-209 -256h-102z" />
<glyph unicode="&#xb6;" horiz-adv-x="972" d="M86 1153q0 311 322 311h430v-1849h-76v1776h-279v-1776h-75v1227q-163 0 -242.5 87t-79.5 224z" />
<glyph unicode="&#xb7;" horiz-adv-x="358" d="M94 723q0 35 25.5 61.5t60.5 26.5q36 0 60 -26t24 -62t-24 -61t-60 -25q-35 0 -60.5 25.5t-25.5 60.5z" />
<glyph unicode="&#xb8;" horiz-adv-x="526" d="M37 -276h88q18 -68 127 -68q137 0 137 88q0 47 -39 68.5t-131 21.5h-100v70h141q101 0 157 -44.5t56 -111.5q0 -46 -17.5 -76.5t-50.5 -46t-69 -21t-84 -5.5q-105 0 -155.5 36t-59.5 89z" />
<glyph unicode="&#xb9;" horiz-adv-x="720" d="M104 1208v76q57 0 92.5 3t70.5 13t56 29.5t38.5 52.5t27.5 82h76v-815h-94v615q-45 -56 -213 -56h-54z" />
<glyph unicode="&#xba;" horiz-adv-x="778" d="M98 1110q0 185 68.5 278t222.5 93t222.5 -93t68.5 -278q0 -188 -68.5 -281.5t-222.5 -93.5t-222.5 93.5t-68.5 281.5zM113 567v70h553v-70h-553zM182 1108q0 -303 207 -303t207 303t-207 303t-207 -303z" />
<glyph unicode="&#xbb;" horiz-adv-x="727" d="M41 188l217 412l-217 406h100l232 -412l-232 -406h-100zM358 188l217 412l-217 406h101l231 -412l-231 -406h-101z" />
<glyph unicode="&#xbc;" horiz-adv-x="1789" d="M104 1208v76q57 0 92.5 3t70.5 13t56 29.5t38.5 52.5t27.5 82h76v-815h-94v615q-45 -56 -213 -56h-54zM328 -20l983 1501h106l-985 -1501h-104zM1026 182v68l410 571h102v-561h76v-78h-76v-182h-92v182h-420zM1130 260h316v430z" />
<glyph unicode="&#xbd;" horiz-adv-x="1789" d="M104 1208v76q57 0 92.5 3t70.5 13t56 29.5t38.5 52.5t27.5 82h76v-815h-94v615q-45 -56 -213 -56h-54zM328 -20l983 1501h106q-57 -86 -985 -1501h-104zM1104 543q0 122 77 205t189 83q114 0 187 -76.5t73 -187.5q0 -108 -119 -227l-266 -262h389v-78h-510v68l328 333 q82 85 82 168q0 81 -48.5 131t-121.5 50q-70 0 -118 -58t-48 -149h-94z" />
<glyph unicode="&#xbe;" horiz-adv-x="1789" d="M92 897v37h84v-43q0 -68 53 -120t121 -52q76 0 127 46t51 118q0 64 -53.5 110.5t-124.5 46.5h-53v80h53q64 0 113 42t49 102t-48.5 100.5t-113.5 40.5q-60 0 -107.5 -46.5t-47.5 -107.5v-43h-86v37q0 97 71.5 166.5t169.5 69.5q102 0 173 -63t71 -161q0 -53 -29 -99 t-84 -75q59 -27 96 -82t37 -112q0 -108 -76 -178t-188 -70q-108 0 -183 74t-75 182zM328 -20l983 1501h106l-985 -1501h-104zM1026 182v68l410 571h102v-561h76v-78h-76v-182h-92v182h-420zM1130 260h316v430z" />
<glyph unicode="&#xbf;" horiz-adv-x="991" d="M113 371q0 82 33.5 155.5t80.5 128t94.5 108t81 119t33.5 136.5h105q0 -77 -33 -149t-80.5 -129.5t-95 -113.5t-80.5 -123t-33 -136q0 -141 81 -219t214 -78q134 0 221.5 97t87.5 255h107q-2 -194 -115.5 -318t-302.5 -124q-191 0 -295 104.5t-104 286.5zM401 1395 q0 37 24.5 61.5t59.5 24.5q36 0 62 -25t26 -61q0 -35 -26.5 -60.5t-61.5 -25.5t-59.5 25.5t-24.5 60.5z" />
<glyph unicode="&#xc0;" horiz-adv-x="1140" d="M35 0l467 1464h137l467 -1464h-115l-143 461h-555l-143 -461h-115zM319 549h502l-252 805zM358 1872h127l185 -256h-103z" />
<glyph unicode="&#xc1;" horiz-adv-x="1140" d="M35 0l467 1464h137l467 -1464h-115l-143 461h-555l-143 -461h-115zM319 549h502l-252 805zM467 1616l184 256h127l-209 -256h-102z" />
<glyph unicode="&#xc2;" horiz-adv-x="1140" d="M35 0l467 1464h137l467 -1464h-115l-143 461h-555l-143 -461h-115zM319 549h502l-252 805zM346 1616l158 256h123l166 -256h-82l-144 174l-139 -174h-82z" />
<glyph unicode="&#xc3;" horiz-adv-x="1140" d="M35 0l467 1464h137l467 -1464h-115l-143 461h-555l-143 -461h-115zM301 1751q17 39 66.5 71.5t91.5 32.5q54 0 125.5 -34.5t97.5 -34.5q29 0 58 24t40 48l58 -41q-17 -39 -66.5 -72t-91.5 -33q-56 0 -124 35t-99 35t-59.5 -24t-39.5 -48zM319 549h502l-252 805z" />
<glyph unicode="&#xc4;" horiz-adv-x="1140" d="M35 0l467 1464h137l467 -1464h-115l-143 461h-555l-143 -461h-115zM319 549h502l-252 805zM367 1798q0 29 20 49.5t49 20.5t49.5 -20.5t20.5 -49.5t-20.5 -49t-49.5 -20t-49 20t-20 49zM631 1798q0 29 20 49.5t49 20.5t50.5 -20.5t21.5 -49.5t-21 -49t-51 -20 q-29 0 -49 20t-20 49z" />
<glyph unicode="&#xc5;" horiz-adv-x="1140" d="M35 0l397 1245q-47 31 -74.5 82.5t-27.5 110.5q0 101 69.5 170t169.5 69t170 -69t70 -170q0 -59 -27.5 -110.5t-72.5 -82.5l397 -1245h-115l-143 461h-555l-143 -461h-115zM319 549h502l-205 655q-24 -6 -47 -6q-26 0 -47 6zM420 1438q0 -63 43 -106.5t106 -43.5 q64 0 107 43.5t43 106.5q0 66 -42.5 107.5t-107.5 41.5q-64 0 -106.5 -42t-42.5 -107z" />
<glyph unicode="&#xc6;" horiz-adv-x="1738" d="M35 0l663 1464h955v-90h-625v-590h457v-84h-457v-612h666v-88h-772v461h-564l-206 -461h-117zM397 549h525v825h-154z" />
<glyph unicode="&#xc7;" horiz-adv-x="1165" d="M121 731q0 354 130 552t376 198q144 0 246 -74.5t157 -194.5l-102 -20q-42 82 -120.5 137t-180.5 55q-197 0 -297.5 -172t-100.5 -483t102.5 -483t303.5 -172q109 0 191.5 61t121.5 156l105 -19q-61 -135 -166.5 -213.5t-255.5 -78.5q-255 0 -382.5 196t-127.5 555z M383 -276h88q18 -68 127 -68q137 0 137 88q0 47 -39 68.5t-131 21.5h-100v70h141q101 0 157 -44.5t56 -111.5q0 -46 -17.5 -76.5t-50.5 -46t-69 -21t-84 -5.5q-105 0 -155.5 36t-59.5 89z" />
<glyph unicode="&#xc8;" horiz-adv-x="997" d="M162 0v1464h747v-90h-641v-590h475v-84h-475v-612h684v-88h-790zM338 1872h127l184 -256h-102z" />
<glyph unicode="&#xc9;" horiz-adv-x="997" d="M162 0v1464h747v-90h-641v-590h475v-84h-475v-612h684v-88h-790zM387 1616l184 256h127l-209 -256h-102z" />
<glyph unicode="&#xca;" horiz-adv-x="997" d="M162 0v1464h747v-90h-641v-590h475v-84h-475v-612h684v-88h-790zM274 1616l158 256h123l166 -256h-82l-143 174l-140 -174h-82z" />
<glyph unicode="&#xcb;" horiz-adv-x="997" d="M162 0v1464h747v-90h-641v-590h475v-84h-475v-612h684v-88h-790zM295 1827q0 29 20.5 49t49.5 20t49 -20t20 -49t-20 -49.5t-49 -20.5t-49.5 20.5t-20.5 49.5zM559 1827q0 29 20.5 49t49.5 20t50 -20t21 -49t-21 -49.5t-50 -20.5t-49.5 20.5t-20.5 49.5z" />
<glyph unicode="&#xcc;" horiz-adv-x="436" d="M61 1872h127l185 -256h-103zM162 0v1464h106v-1464h-106z" />
<glyph unicode="&#xcd;" horiz-adv-x="436" d="M61 1616l185 256h127l-209 -256h-103zM162 0v1464h106v-1464h-106z" />
<glyph unicode="&#xce;" horiz-adv-x="436" d="M-6 1616l158 256h122l166 -256h-82l-143 174l-139 -174h-82zM162 0v1464h106v-1464h-106z" />
<glyph unicode="&#xcf;" horiz-adv-x="436" d="M16 1827q0 29 20.5 49t49.5 20t49.5 -20t20.5 -49t-20.5 -49.5t-49.5 -20.5t-49.5 20.5t-20.5 49.5zM162 0v1464h106v-1464h-106zM281 1827q0 29 20 49t49 20q30 0 51 -20t21 -49t-21.5 -49.5t-50.5 -20.5t-49 20.5t-20 49.5z" />
<glyph unicode="&#xd0;" horiz-adv-x="1214" d="M49 700v88h113v676h403q138 0 241.5 -51t168.5 -147.5t97 -230t32 -304.5q0 -349 -133.5 -540t-405.5 -191h-403v700h-113zM268 88h297q111 0 195 49t134.5 137.5t75.5 203t25 253.5q0 138 -25 252t-76 203t-135.5 138.5t-195.5 49.5h-295v-586h262v-88h-262v-612z" />
<glyph unicode="&#xd1;" horiz-adv-x="1265" d="M162 0v1464h121l686 -1292v1292h104v-1464h-127l-680 1280v-1280h-104zM365 1751q17 39 66 71.5t91 32.5q54 0 125.5 -34.5t97.5 -34.5q29 0 58.5 24t40.5 48l57 -41q-17 -39 -66.5 -72t-91.5 -33q-56 0 -124 35t-99 35t-59 -24t-39 -48z" />
<glyph unicode="&#xd2;" horiz-adv-x="1255" d="M121 731q0 125 18 235t57.5 205t98 163.5t143.5 107.5t189 39q106 0 191.5 -39t143.5 -107t97 -164t56.5 -205.5t17.5 -234.5q0 -158 -29.5 -291t-88.5 -237.5t-158 -163.5t-228 -59q-109 0 -195.5 39t-144.5 107t-96.5 164t-55 205t-16.5 236zM229 731q0 -139 23.5 -256 t70.5 -208.5t125.5 -143t180.5 -51.5q101 0 178 51.5t124.5 142.5t71 208.5t23.5 256.5q0 137 -24 253.5t-71.5 207.5t-125.5 142.5t-178 51.5t-178 -51.5t-125 -142.5t-71 -207.5t-24 -253.5zM399 1872h127l185 -256h-103z" />
<glyph unicode="&#xd3;" horiz-adv-x="1255" d="M121 731q0 125 18 235t57.5 205t98 163.5t143.5 107.5t189 39q106 0 191.5 -39t143.5 -107t97 -164t56.5 -205.5t17.5 -234.5q0 -158 -29.5 -291t-88.5 -237.5t-158 -163.5t-228 -59q-109 0 -195.5 39t-144.5 107t-96.5 164t-55 205t-16.5 236zM229 731q0 -139 23.5 -256 t70.5 -208.5t125.5 -143t180.5 -51.5q101 0 178 51.5t124.5 142.5t71 208.5t23.5 256.5q0 137 -24 253.5t-71.5 207.5t-125.5 142.5t-178 51.5t-178 -51.5t-125 -142.5t-71 -207.5t-24 -253.5zM508 1616l184 256h127l-209 -256h-102z" />
<glyph unicode="&#xd4;" horiz-adv-x="1255" d="M121 731q0 125 18 235t57.5 205t98 163.5t143.5 107.5t189 39q106 0 191.5 -39t143.5 -107t97 -164t56.5 -205.5t17.5 -234.5q0 -158 -29.5 -291t-88.5 -237.5t-158 -163.5t-228 -59q-109 0 -195.5 39t-144.5 107t-96.5 164t-55 205t-16.5 236zM229 731q0 -139 23.5 -256 t70.5 -208.5t125.5 -143t180.5 -51.5q101 0 178 51.5t124.5 142.5t71 208.5t23.5 256.5q0 137 -24 253.5t-71.5 207.5t-125.5 142.5t-178 51.5t-178 -51.5t-125 -142.5t-71 -207.5t-24 -253.5zM401 1616l158 256h123l166 -256h-82l-143 174l-140 -174h-82z" />
<glyph unicode="&#xd5;" horiz-adv-x="1255" d="M121 731q0 125 18 235t57.5 205t98 163.5t143.5 107.5t189 39q106 0 191.5 -39t143.5 -107t97 -164t56.5 -205.5t17.5 -234.5q0 -158 -29.5 -291t-88.5 -237.5t-158 -163.5t-228 -59q-109 0 -195.5 39t-144.5 107t-96.5 164t-55 205t-16.5 236zM229 731q0 -139 23.5 -256 t70.5 -208.5t125.5 -143t180.5 -51.5q101 0 178 51.5t124.5 142.5t71 208.5t23.5 256.5q0 137 -24 253.5t-71.5 207.5t-125.5 142.5t-178 51.5t-178 -51.5t-125 -142.5t-71 -207.5t-24 -253.5zM358 1751q17 39 66.5 71.5t91.5 32.5q54 0 125.5 -34.5t97.5 -34.5 q29 0 58.5 24t40.5 48l57 -41q-17 -39 -66.5 -72t-91.5 -33q-56 0 -124 35t-99 35t-59 -24t-39 -48z" />
<glyph unicode="&#xd6;" horiz-adv-x="1255" d="M121 731q0 125 18 235t57.5 205t98 163.5t143.5 107.5t189 39q106 0 191.5 -39t143.5 -107t97 -164t56.5 -205.5t17.5 -234.5q0 -158 -29.5 -291t-88.5 -237.5t-158 -163.5t-228 -59q-109 0 -195.5 39t-144.5 107t-96.5 164t-55 205t-16.5 236zM229 731q0 -139 23.5 -256 t70.5 -208.5t125.5 -143t180.5 -51.5q101 0 178 51.5t124.5 142.5t71 208.5t23.5 256.5q0 137 -24 253.5t-71.5 207.5t-125.5 142.5t-178 51.5t-178 -51.5t-125 -142.5t-71 -207.5t-24 -253.5zM424 1798q0 29 20.5 49.5t49.5 20.5t49 -20.5t20 -49.5t-20 -49t-49 -20 t-49.5 20t-20.5 49zM688 1798q0 29 20.5 49.5t49.5 20.5t50 -20.5t21 -49.5t-21 -49t-50 -20t-49.5 20t-20.5 49z" />
<glyph unicode="&#xd7;" d="M221 371l289 286l-287 289l66 66l286 -287l287 287l66 -66l-287 -289l289 -286l-66 -68l-289 289l-288 -287z" />
<glyph unicode="&#xd8;" horiz-adv-x="1245" d="M111 731q0 157 29.5 290t89 237.5t158.5 163.5t228 59q106 0 191.5 -39t143.5 -107t97 -164t56.5 -205.5t17.5 -234.5q0 -158 -29.5 -291t-88.5 -237.5t-158 -163.5t-228 -59q-109 0 -195.5 39t-144.5 107t-96 164t-54.5 205t-16.5 236zM219 731q0 -285 88 -457l576 975 q-100 137 -267 137q-100 0 -177.5 -51.5t-125 -142.5t-71 -207.5t-23.5 -253.5zM354 203q101 -131 264 -131q101 0 178.5 51.5t124.5 142.5t71 208.5t24 256.5q0 268 -88 443z" />
<glyph unicode="&#xd9;" horiz-adv-x="1171" d="M160 422v1042h106v-1034q0 -151 94 -257.5t226 -106.5q135 0 226 97.5t91 264.5v1036h109v-1042q0 -203 -119.5 -324t-306.5 -121q-188 0 -307 120.5t-119 324.5zM430 1872h127l184 -256h-102z" />
<glyph unicode="&#xda;" horiz-adv-x="1171" d="M160 422v1042h106v-1034q0 -151 94 -257.5t226 -106.5q135 0 226 97.5t91 264.5v1036h109v-1042q0 -203 -119.5 -324t-306.5 -121q-188 0 -307 120.5t-119 324.5zM430 1616l184 256h127l-209 -256h-102z" />
<glyph unicode="&#xdb;" horiz-adv-x="1171" d="M160 422v1042h106v-1034q0 -151 94 -257.5t226 -106.5q135 0 226 97.5t91 264.5v1036h109v-1042q0 -203 -119.5 -324t-306.5 -121q-188 0 -307 120.5t-119 324.5zM360 1616l158 256h123l166 -256h-82l-143 174l-140 -174h-82z" />
<glyph unicode="&#xdc;" horiz-adv-x="1171" d="M160 422v1042h106v-1034q0 -151 94 -257.5t226 -106.5q135 0 226 97.5t91 264.5v1036h109v-1042q0 -203 -119.5 -324t-306.5 -121q-188 0 -307 120.5t-119 324.5zM383 1827q0 29 20.5 49t49.5 20t49 -20t20 -49t-20 -49.5t-49 -20.5t-49.5 20.5t-20.5 49.5zM647 1827 q0 29 20.5 49t49.5 20t50 -20t21 -49t-21 -49.5t-50 -20.5t-49.5 20.5t-20.5 49.5z" />
<glyph unicode="&#xdd;" horiz-adv-x="1183" d="M53 1464h123l416 -684l416 684h120l-483 -784v-680h-106v680zM436 1616l185 256h127l-209 -256h-103z" />
<glyph unicode="&#xde;" d="M162 0v1464h106v-254h330q199 0 335 -122.5t136 -315.5q0 -123 -63.5 -222.5t-171.5 -154.5t-238 -55h-328v-340h-106zM268 428h320q155 0 262.5 96.5t107.5 249.5t-108.5 250.5t-261.5 97.5h-320v-694z" />
<glyph unicode="&#xdf;" horiz-adv-x="1155" d="M147 0v1079q0 189 120 295.5t315 106.5q196 0 313 -98.5t117 -295.5q0 -101 -56.5 -185t-156.5 -134q123 -46 187.5 -143t64.5 -219q0 -178 -119 -292t-301 -114h-123v86h127q128 0 219.5 98t91.5 230q0 63 -17.5 114t-48 85t-73 57.5t-90 34t-101.5 10.5h-106v88h106 q120 0 207.5 75.5t87.5 200.5q0 157 -85.5 235.5t-243.5 78.5q-155 0 -242.5 -81t-87.5 -241v-1071h-105z" />
<glyph unicode="&#xe0;" horiz-adv-x="1038" d="M66 311q0 87 34 155t90.5 107.5t123 59.5t139.5 20q234 0 348 -151v172q0 179 -75 259.5t-247 80.5q-155 0 -289 -84l-53 80q57 36 150 63t202 27q213 0 314.5 -100t101.5 -314v-686h-104v141q-43 -79 -143 -120t-205 -41q-57 0 -109.5 10t-104 34.5t-89.5 61.5t-61 95 t-23 130zM174 313q0 -119 85 -185.5t208 -66.5q57 0 113 14t107 42t82.5 78t31.5 114q0 66 -30 117.5t-79.5 81t-107 44.5t-117.5 15q-124 0 -208.5 -69t-84.5 -185zM354 1464h127l185 -256h-103z" />
<glyph unicode="&#xe1;" horiz-adv-x="1038" d="M66 311q0 87 34 155t90.5 107.5t123 59.5t139.5 20q234 0 348 -151v172q0 179 -75 259.5t-247 80.5q-155 0 -289 -84l-53 80q57 36 150 63t202 27q213 0 314.5 -100t101.5 -314v-686h-104v141q-43 -79 -143 -120t-205 -41q-57 0 -109.5 10t-104 34.5t-89.5 61.5t-61 95 t-23 130zM174 313q0 -119 85 -185.5t208 -66.5q57 0 113 14t107 42t82.5 78t31.5 114q0 66 -30 117.5t-79.5 81t-107 44.5t-117.5 15q-124 0 -208.5 -69t-84.5 -185zM354 1208l185 256h127l-209 -256h-103z" />
<glyph unicode="&#xe2;" horiz-adv-x="1038" d="M66 311q0 87 34 155t90.5 107.5t123 59.5t139.5 20q234 0 348 -151v172q0 179 -75 259.5t-247 80.5q-155 0 -289 -84l-53 80q57 36 150 63t202 27q213 0 314.5 -100t101.5 -314v-686h-104v141q-43 -79 -143 -120t-205 -41q-57 0 -109.5 10t-104 34.5t-89.5 61.5t-61 95 t-23 130zM174 313q0 -119 85 -185.5t208 -66.5q57 0 113 14t107 42t82.5 78t31.5 114q0 66 -30 117.5t-79.5 81t-107 44.5t-117.5 15q-124 0 -208.5 -69t-84.5 -185zM287 1208l157 256h123l166 -256h-82l-143 174l-139 -174h-82z" />
<glyph unicode="&#xe3;" horiz-adv-x="1038" d="M66 311q0 87 34 155t90.5 107.5t123 59.5t139.5 20q234 0 348 -151v172q0 179 -75 259.5t-247 80.5q-155 0 -289 -84l-53 80q57 36 150 63t202 27q213 0 314.5 -100t101.5 -314v-686h-104v141q-43 -79 -143 -120t-205 -41q-57 0 -109.5 10t-104 34.5t-89.5 61.5t-61 95 t-23 130zM174 313q0 -119 85 -185.5t208 -66.5q57 0 113 14t107 42t82.5 78t31.5 114q0 66 -30 117.5t-79.5 81t-107 44.5t-117.5 15q-124 0 -208.5 -69t-84.5 -185zM248 1343q17 39 66.5 72t91.5 33q54 0 125.5 -35t97.5 -35q29 0 58 24t40 48l57 -41q-17 -39 -66 -71.5 t-91 -32.5q-56 0 -124.5 34.5t-99.5 34.5t-59 -23.5t-39 -47.5z" />
<glyph unicode="&#xe4;" horiz-adv-x="1038" d="M66 311q0 87 34 155t90.5 107.5t123 59.5t139.5 20q234 0 348 -151v172q0 179 -75 259.5t-247 80.5q-155 0 -289 -84l-53 80q57 36 150 63t202 27q213 0 314.5 -100t101.5 -314v-686h-104v141q-43 -79 -143 -120t-205 -41q-57 0 -109.5 10t-104 34.5t-89.5 61.5t-61 95 t-23 130zM174 313q0 -119 85 -185.5t208 -66.5q57 0 113 14t107 42t82.5 78t31.5 114q0 66 -30 117.5t-79.5 81t-107 44.5t-117.5 15q-124 0 -208.5 -69t-84.5 -185zM311 1419q0 29 20.5 49.5t49.5 20.5t49.5 -20.5t20.5 -49.5t-20.5 -49t-49.5 -20t-49.5 20t-20.5 49z M575 1419q0 29 20.5 49.5t49.5 20.5t50.5 -20.5t21.5 -49.5t-21 -49t-51 -20q-29 0 -49.5 20t-20.5 49z" />
<glyph unicode="&#xe5;" horiz-adv-x="1038" d="M66 311q0 87 34 155t90.5 107.5t123 59.5t139.5 20q234 0 348 -151v172q0 179 -75 259.5t-247 80.5q-155 0 -289 -84l-53 80q57 36 150 63t202 27q213 0 314.5 -100t101.5 -314v-686h-104v141q-43 -79 -143 -120t-205 -41q-57 0 -109.5 10t-104 34.5t-89.5 61.5t-61 95 t-23 130zM174 313q0 -119 85 -185.5t208 -66.5q57 0 113 14t107 42t82.5 78t31.5 114q0 66 -30 117.5t-79.5 81t-107 44.5t-117.5 15q-124 0 -208.5 -69t-84.5 -185zM303 1382q0 85 60.5 146t146.5 61q85 0 146 -61t61 -146t-61 -145.5t-146 -60.5q-86 0 -146.5 60.5 t-60.5 145.5zM373 1382q0 -56 40 -95.5t97 -39.5q54 0 94.5 40t40.5 95q0 54 -40.5 94t-94.5 40q-57 0 -97 -40t-40 -94z" />
<glyph unicode="&#xe6;" horiz-adv-x="1710" d="M66 309q0 87 34 155t90.5 108t123.5 60.5t139 20.5q234 0 348 -151v172q0 179 -75 259.5t-247 80.5q-155 0 -289 -84l-55 82q155 88 354 88q158 0 248.5 -55t124.5 -173q94 228 342 228q93 0 163 -30t123 -97t80 -181.5t27 -275.5h-700q3 -229 92 -336.5t232 -107.5 q173 0 266 127l102 -21q-119 -198 -368 -198q-272 0 -365 243q-38 -119 -141.5 -181t-261.5 -62q-57 0 -109.5 10t-104 34t-89.5 60.5t-61 94.5t-23 130zM174 311q0 -119 85 -184.5t208 -65.5q57 0 113 14t107 42t82.5 78t31.5 114q0 66 -30 117.5t-79.5 81t-107 44.5 t-117.5 15q-124 0 -208.5 -69.5t-84.5 -186.5zM897 598h596q-6 410 -297 410q-283 0 -299 -410z" />
<glyph unicode="&#xe7;" horiz-adv-x="944" d="M113 545q0 156 26 264.5t78.5 172t124.5 91t172 27.5q251 0 363 -207l-103 -21q-39 60 -107 98t-153 38q-154 0 -225.5 -105.5t-71.5 -359.5q0 -132 19.5 -224t58.5 -146.5t92 -78.5t127 -24q87 0 156.5 36t107.5 91l103 -19q-114 -198 -367 -198q-77 0 -138 17.5 t-111 58.5t-83 106t-51 161t-18 222zM291 -276h88q18 -68 127 -68q137 0 137 88q0 47 -39 68.5t-131 21.5h-100v70h141q101 0 157 -44.5t56 -111.5q0 -46 -17.5 -76.5t-50.5 -46t-69 -21t-84 -5.5q-105 0 -155.5 36t-59.5 89z" />
<glyph unicode="&#xe8;" horiz-adv-x="1028" d="M113 545q0 287 108.5 421t300.5 134q93 0 163 -30t123 -97t80 -181.5t27 -275.5h-698q3 -229 92 -336.5t232 -107.5q88 0 156 34.5t110 92.5l100 -21q-116 -198 -368 -198q-75 0 -138 18.5t-117 61t-91.5 107.5t-58.5 160.5t-21 217.5zM217 598h594q-6 410 -295 410 q-283 0 -299 -410zM315 1464h127l185 -256h-103z" />
<glyph unicode="&#xe9;" horiz-adv-x="1028" d="M113 545q0 287 108.5 421t300.5 134q93 0 163 -30t123 -97t80 -181.5t27 -275.5h-698q3 -229 92 -336.5t232 -107.5q88 0 156 34.5t110 92.5l100 -21q-116 -198 -368 -198q-75 0 -138 18.5t-117 61t-91.5 107.5t-58.5 160.5t-21 217.5zM217 598h594q-6 410 -295 410 q-283 0 -299 -410zM403 1208l185 256h127l-209 -256h-103z" />
<glyph unicode="&#xea;" horiz-adv-x="1028" d="M113 545q0 287 108.5 421t300.5 134q93 0 163 -30t123 -97t80 -181.5t27 -275.5h-698q3 -229 92 -336.5t232 -107.5q88 0 156 34.5t110 92.5l100 -21q-116 -198 -368 -198q-75 0 -138 18.5t-117 61t-91.5 107.5t-58.5 160.5t-21 217.5zM217 598h594q-6 410 -295 410 q-283 0 -299 -410zM289 1208l157 256h123l166 -256h-82l-143 174l-139 -174h-82z" />
<glyph unicode="&#xeb;" horiz-adv-x="1028" d="M113 545q0 287 108.5 421t300.5 134q93 0 163 -30t123 -97t80 -181.5t27 -275.5h-698q3 -229 92 -336.5t232 -107.5q88 0 156 34.5t110 92.5l100 -21q-116 -198 -368 -198q-75 0 -138 18.5t-117 61t-91.5 107.5t-58.5 160.5t-21 217.5zM217 598h594q-6 410 -295 410 q-283 0 -299 -410zM311 1419q0 29 20.5 49.5t49.5 20.5t49.5 -20.5t20.5 -49.5t-20.5 -49t-49.5 -20t-49.5 20t-20.5 49zM575 1419q0 29 20.5 49.5t49.5 20.5t50.5 -20.5t21.5 -49.5t-21 -49t-51 -20q-29 0 -49.5 20t-20.5 49z" />
<glyph unicode="&#xec;" horiz-adv-x="391" d="M39 1464h127l184 -256h-102zM143 0v1081h105v-1081h-105z" />
<glyph unicode="&#xed;" horiz-adv-x="391" d="M39 1208l184 256h127l-209 -256h-102zM143 0v1081h105v-1081h-105z" />
<glyph unicode="&#xee;" horiz-adv-x="391" d="M-27 1208l158 256h123l166 -256h-82l-143 174l-140 -174h-82zM143 0v1081h105v-1081h-105z" />
<glyph unicode="&#xef;" horiz-adv-x="391" d="M-6 1419q0 29 20 49.5t49 20.5t49.5 -20.5t20.5 -49.5t-20.5 -49t-49.5 -20t-49 20t-20 49zM143 0v1081h105v-1081h-105zM258 1419q0 29 20.5 49.5t49.5 20.5t50 -20.5t21 -49.5t-21 -49t-50 -20t-49.5 20t-20.5 49z" />
<glyph unicode="&#xf0;" horiz-adv-x="1083" d="M102 545q0 125 25.5 224.5t77 174.5t137 115.5t199.5 40.5q145 0 241 -99q-85 158 -114 199l-72 100l-168 -90l-43 78l160 86l-80 113l88 49l80 -115l162 88l41 -79l-152 -82l55 -76q136 -192 188 -349t52 -360v-18q0 -265 -106.5 -415t-331.5 -150q-224 0 -331.5 150.5 t-107.5 414.5zM205 541q0 -140 34.5 -244t111.5 -166.5t190 -62.5t190 62.5t111.5 166.5t34.5 244q0 217 -84 344t-252 127t-252 -127t-84 -344z" />
<glyph unicode="&#xf1;" horiz-adv-x="1040" d="M133 0v1081h105v-127q50 51 152 98.5t198 47.5q158 0 238.5 -91t80.5 -266v-743h-104v758q0 124 -63 189t-177 65q-85 0 -184 -49t-141 -91v-872h-105zM252 1343q17 39 66.5 72t91.5 33q54 0 125.5 -35t97.5 -35q29 0 58 24t40 48l57 -41q-17 -39 -66 -71.5t-91 -32.5 q-56 0 -124 34.5t-99 34.5t-59.5 -23.5t-39.5 -47.5z" />
<glyph unicode="&#xf2;" horiz-adv-x="1083" d="M102 545q0 125 25.5 224.5t77 174.5t137 115.5t199.5 40.5q115 0 200 -40.5t136.5 -115.5t76.5 -174.5t25 -224.5q0 -265 -106.5 -415t-331.5 -150q-224 0 -331.5 150.5t-107.5 414.5zM205 541q0 -140 34.5 -244t111.5 -166.5t190 -62.5t190 62.5t111.5 166.5t34.5 244 q0 217 -84 344t-252 127t-252 -127t-84 -344zM340 1464h127l184 -256h-102z" />
<glyph unicode="&#xf3;" horiz-adv-x="1083" d="M102 545q0 125 25.5 224.5t77 174.5t137 115.5t199.5 40.5q115 0 200 -40.5t136.5 -115.5t76.5 -174.5t25 -224.5q0 -265 -106.5 -415t-331.5 -150q-224 0 -331.5 150.5t-107.5 414.5zM205 541q0 -140 34.5 -244t111.5 -166.5t190 -62.5t190 62.5t111.5 166.5t34.5 244 q0 217 -84 344t-252 127t-252 -127t-84 -344zM412 1208l184 256h127l-209 -256h-102z" />
<glyph unicode="&#xf4;" horiz-adv-x="1083" d="M102 545q0 125 25.5 224.5t77 174.5t137 115.5t199.5 40.5q115 0 200 -40.5t136.5 -115.5t76.5 -174.5t25 -224.5q0 -265 -106.5 -415t-331.5 -150q-224 0 -331.5 150.5t-107.5 414.5zM205 541q0 -140 34.5 -244t111.5 -166.5t190 -62.5t190 62.5t111.5 166.5t34.5 244 q0 217 -84 344t-252 127t-252 -127t-84 -344zM317 1208l158 256h123l166 -256h-82l-143 174l-140 -174h-82z" />
<glyph unicode="&#xf5;" horiz-adv-x="1083" d="M102 545q0 125 25.5 224.5t77 174.5t137 115.5t199.5 40.5q115 0 200 -40.5t136.5 -115.5t76.5 -174.5t25 -224.5q0 -265 -106.5 -415t-331.5 -150q-224 0 -331.5 150.5t-107.5 414.5zM205 541q0 -140 34.5 -244t111.5 -166.5t190 -62.5t190 62.5t111.5 166.5t34.5 244 q0 217 -84 344t-252 127t-252 -127t-84 -344zM272 1343q17 39 66.5 72t91.5 33q54 0 125.5 -35t97.5 -35q29 0 58.5 24t40.5 48l57 -41q-17 -39 -66.5 -71.5t-91.5 -32.5q-56 0 -124 34.5t-99 34.5t-59 -23.5t-39 -47.5z" />
<glyph unicode="&#xf6;" horiz-adv-x="1083" d="M102 545q0 125 25.5 224.5t77 174.5t137 115.5t199.5 40.5q115 0 200 -40.5t136.5 -115.5t76.5 -174.5t25 -224.5q0 -265 -106.5 -415t-331.5 -150q-224 0 -331.5 150.5t-107.5 414.5zM205 541q0 -140 34.5 -244t111.5 -166.5t190 -62.5t190 62.5t111.5 166.5t34.5 244 q0 217 -84 344t-252 127t-252 -127t-84 -344zM338 1419q0 29 20.5 49.5t49.5 20.5t49 -20.5t20 -49.5t-20 -49t-49 -20t-49.5 20t-20.5 49zM602 1419q0 29 20.5 49.5t49.5 20.5t50 -20.5t21 -49.5t-21 -49t-50 -20t-49.5 20t-20.5 49z" />
<glyph unicode="&#xf7;" d="M154 612v93h845v-93h-845zM492 186q0 35 25.5 60.5t60.5 25.5q36 0 60 -25t24 -61q0 -37 -23.5 -61.5t-60.5 -24.5q-36 0 -61 25t-25 61zM492 1133q0 35 25.5 61.5t60.5 26.5q36 0 60 -26t24 -62t-24 -60t-60 -24q-35 0 -60.5 24.5t-25.5 59.5z" />
<glyph unicode="&#xf8;" horiz-adv-x="1083" d="M102 545q0 125 25.5 224.5t77 174.5t137 115.5t199.5 40.5q115 0 200 -40.5t136.5 -115.5t76.5 -174.5t25 -224.5q0 -265 -106.5 -415t-331.5 -150q-224 0 -331.5 150.5t-107.5 414.5zM205 541q0 -205 71 -324l492 698q-84 97 -227 97q-168 0 -252 -127t-84 -344z M326 154q83 -86 215 -86q113 0 190 62.5t111.5 166.5t34.5 244q0 186 -64 305z" />
<glyph unicode="&#xf9;" horiz-adv-x="1030" d="M133 336v745h105v-757q0 -125 62.5 -190.5t176.5 -65.5q81 0 178 42.5t138 79.5v891h104v-1081h-104v121q-57 -51 -152.5 -95t-187.5 -44q-158 0 -239 90t-81 264zM358 1464h127l185 -256h-103z" />
<glyph unicode="&#xfa;" horiz-adv-x="1030" d="M133 336v745h105v-757q0 -125 62.5 -190.5t176.5 -65.5q81 0 178 42.5t138 79.5v891h104v-1081h-104v121q-57 -51 -152.5 -95t-187.5 -44q-158 0 -239 90t-81 264zM358 1208l185 256h127l-209 -256h-103z" />
<glyph unicode="&#xfb;" horiz-adv-x="1030" d="M133 336v745h105v-757q0 -125 62.5 -190.5t176.5 -65.5q81 0 178 42.5t138 79.5v891h104v-1081h-104v121q-57 -51 -152.5 -95t-187.5 -44q-158 0 -239 90t-81 264zM291 1208l158 256h122l166 -256h-82l-143 174l-139 -174h-82z" />
<glyph unicode="&#xfc;" horiz-adv-x="1030" d="M133 336v745h105v-757q0 -125 62.5 -190.5t176.5 -65.5q81 0 178 42.5t138 79.5v891h104v-1081h-104v121q-57 -51 -152.5 -95t-187.5 -44q-158 0 -239 90t-81 264zM311 1419q0 29 20.5 49.5t49.5 20.5t49.5 -20.5t20.5 -49.5t-20.5 -49t-49.5 -20t-49.5 20t-20.5 49z M575 1419q0 29 20.5 49.5t49.5 20.5t50.5 -20.5t21.5 -49.5t-21 -49t-51 -20q-29 0 -49.5 20t-20.5 49z" />
<glyph unicode="&#xfd;" horiz-adv-x="962" d="M43 1081h113l325 -946l334 946h105l-525 -1464h-102l137 385zM326 1208l184 256h127l-209 -256h-102z" />
<glyph unicode="&#xfe;" horiz-adv-x="1071" d="M133 -383v1847l105 72v-588q47 57 135.5 104.5t189.5 47.5q180 0 287.5 -137t107.5 -422q0 -117 -21 -211.5t-58.5 -159.5t-89.5 -109t-112.5 -64t-129.5 -20q-94 0 -176.5 50t-132.5 112v-522h-105zM238 225q52 -60 130.5 -109.5t168.5 -49.5q68 0 123.5 25t100 78.5 t69 147.5t24.5 222q0 133 -25 228t-70.5 147t-99.5 75t-122 23q-90 0 -172.5 -50.5t-126.5 -105.5v-631z" />
<glyph unicode="&#xff;" horiz-adv-x="962" d="M43 1081h113l325 -946l334 946h105l-525 -1464h-102l137 385zM279 1419q0 29 20 49.5t49 20.5t49.5 -20.5t20.5 -49.5t-20.5 -49t-49.5 -20t-49 20t-20 49zM543 1419q0 29 20 49.5t49 20.5t50.5 -20.5t21.5 -49.5t-21 -49t-51 -20q-29 0 -49 20t-20 49z" />
<glyph unicode="&#x152;" horiz-adv-x="1771" d="M121 731q0 381 135.5 557t423.5 176h1003v-90h-641v-590h476v-84h-476v-612h684v-88h-1046q-289 0 -424 174.5t-135 556.5zM229 731q0 -331 110.5 -487t340.5 -156h256v1286h-254q-230 0 -341.5 -157t-111.5 -486z" />
<glyph unicode="&#x153;" horiz-adv-x="1785" d="M102 545q0 125 25.5 224.5t77 174.5t137 115.5t199.5 40.5q150 0 245 -71.5t138 -201.5q82 273 356 273q93 0 163 -30t123 -97t80 -181.5t27 -275.5h-698q3 -230 91.5 -337t231.5 -107q88 0 156.5 35t110.5 92l100 -21q-116 -198 -369 -198q-135 0 -231.5 67t-140.5 209 q-88 -276 -383 -276q-224 0 -331.5 150.5t-107.5 414.5zM205 541q0 -140 34.5 -244t111.5 -166.5t190 -62.5t190 62.5t111.5 166.5t34.5 244q0 217 -84 344t-252 127t-252 -127t-84 -344zM975 598h594q-6 410 -295 410q-283 0 -299 -410z" />
<glyph unicode="&#x178;" horiz-adv-x="1183" d="M53 1464h123l416 -684l416 684h120l-483 -784v-680h-106v680zM389 1798q0 29 20.5 49.5t49.5 20.5t49 -20.5t20 -49.5t-20 -49t-49 -20t-49.5 20t-20.5 49zM653 1798q0 29 20.5 49.5t49.5 20.5t50.5 -20.5t21.5 -49.5t-21 -49t-51 -20q-29 0 -49.5 20t-20.5 49z" />
<glyph unicode="&#x2c6;" horiz-adv-x="468" d="M10 1208l158 256h123l166 -256h-82l-144 174l-139 -174h-82z" />
<glyph unicode="&#x2dc;" horiz-adv-x="538" d="M2 1343q17 39 66.5 72t91.5 33q54 0 125.5 -35t97.5 -35q29 0 58 24t40 48l58 -41q-17 -39 -66.5 -71.5t-91.5 -32.5q-56 0 -124 34.5t-99 34.5t-59.5 -23.5t-39.5 -47.5z" />
<glyph unicode="&#x2000;" horiz-adv-x="948" />
<glyph unicode="&#x2001;" horiz-adv-x="1896" />
<glyph unicode="&#x2002;" horiz-adv-x="948" />
<glyph unicode="&#x2003;" horiz-adv-x="1896" />
<glyph unicode="&#x2004;" horiz-adv-x="632" />
<glyph unicode="&#x2005;" horiz-adv-x="474" />
<glyph unicode="&#x2006;" horiz-adv-x="316" />
<glyph unicode="&#x2007;" horiz-adv-x="316" />
<glyph unicode="&#x2008;" horiz-adv-x="237" />
<glyph unicode="&#x2009;" horiz-adv-x="379" />
<glyph unicode="&#x200a;" horiz-adv-x="105" />
<glyph unicode="&#x2010;" horiz-adv-x="651" d="M53 612v93h543v-93h-543z" />
<glyph unicode="&#x2011;" horiz-adv-x="651" d="M53 612v93h543v-93h-543z" />
<glyph unicode="&#x2012;" horiz-adv-x="651" d="M53 612v93h543v-93h-543z" />
<glyph unicode="&#x2013;" horiz-adv-x="1081" d="M0 612v93h1081v-93h-1081z" />
<glyph unicode="&#x2014;" horiz-adv-x="1802" d="M0 612v93h1802v-93h-1802z" />
<glyph unicode="&#x2018;" horiz-adv-x="358" d="M94 1122q0 144 133 359h66q-90 -177 -107 -283q34 -7 57 -27.5t23 -54.5q0 -35 -25 -61.5t-59 -26.5q-37 0 -62.5 26.5t-25.5 67.5z" />
<glyph unicode="&#x2019;" horiz-adv-x="358" d="M70 1028q89 174 106 283q-34 7 -57 28t-23 54q0 35 25.5 61.5t60.5 26.5q36 0 61 -27t25 -68q0 -143 -133 -358h-65z" />
<glyph unicode="&#x201a;" horiz-adv-x="358" d="M68 -301q91 185 106 285q-32 0 -56 23t-24 56q0 36 24.5 62.5t59.5 26.5q37 0 61.5 -27t24.5 -68q0 -139 -133 -358h-63z" />
<glyph unicode="&#x201c;" horiz-adv-x="667" d="M94 1122q0 144 133 359h66q-90 -177 -107 -283q34 -7 57 -27.5t23 -54.5q0 -35 -25 -61.5t-59 -26.5q-37 0 -62.5 26.5t-25.5 67.5zM401 1122q0 143 134 359h65q-89 -174 -106 -283q34 -7 56.5 -27.5t22.5 -54.5q0 -35 -25 -61.5t-59 -26.5q-37 0 -62.5 26.5t-25.5 67.5z " />
<glyph unicode="&#x201d;" horiz-adv-x="665" d="M70 1028q89 174 106 283q-34 7 -57 28t-23 54q0 35 25.5 61.5t60.5 26.5q36 0 61 -27t25 -68q0 -143 -133 -358h-65zM377 1028q89 174 106 283q-34 7 -57 28t-23 54q0 35 25.5 61.5t60.5 26.5q36 0 61 -27t25 -68q0 -143 -133 -358h-65z" />
<glyph unicode="&#x201e;" horiz-adv-x="665" d="M68 -301q91 185 106 285q-32 0 -56 23t-24 56q0 36 24.5 62.5t59.5 26.5q37 0 61.5 -27t24.5 -68q0 -139 -133 -358h-63zM375 -301q91 185 106 285q-32 0 -56 23t-24 56q0 36 24.5 62.5t59.5 26.5q37 0 61.5 -27t24.5 -68q0 -139 -133 -358h-63z" />
<glyph unicode="&#x2022;" horiz-adv-x="1163" d="M180 600q0 166 118 283.5t284 117.5t283.5 -117.5t117.5 -283.5t-117.5 -283.5t-283.5 -117.5t-284 117.5t-118 283.5z" />
<glyph unicode="&#x2026;" horiz-adv-x="1077" d="M94 66q0 35 25.5 60.5t60.5 25.5q36 0 60 -25t24 -61q0 -37 -23.5 -61.5t-60.5 -24.5q-36 0 -61 25t-25 61zM453 66q0 35 26.5 60.5t61.5 25.5t59.5 -25.5t24.5 -60.5q0 -37 -24.5 -61.5t-59.5 -24.5q-36 0 -62 25t-26 61zM813 66q0 35 25.5 60.5t60.5 25.5q36 0 60 -25 t24 -61q0 -37 -23.5 -61.5t-60.5 -24.5q-36 0 -61 25t-25 61z" />
<glyph unicode="&#x202f;" horiz-adv-x="379" />
<glyph unicode="&#x2039;" horiz-adv-x="409" d="M37 594l229 412h103l-219 -406l219 -412h-103z" />
<glyph unicode="&#x203a;" horiz-adv-x="409" d="M41 188l217 412l-217 406h100l232 -412l-232 -406h-100z" />
<glyph unicode="&#x205f;" horiz-adv-x="474" />
<glyph unicode="&#x20ac;" d="M113 541v92h110v102q0 76 2 113h-112v92h114q22 264 136.5 402.5t312.5 138.5q129 0 228 -62.5t157 -175.5l-103 -20q-95 161 -282 161q-305 0 -340 -444h555l-29 -92h-532q-2 -37 -2 -113q0 -67 2 -102h499q-21 -66 -28 -92h-467q28 -467 342 -467q98 0 171.5 46 t117.5 130l104 -19q-58 -121 -157.5 -186t-235.5 -65q-209 0 -322.5 142.5t-128.5 418.5h-112z" />
<glyph unicode="&#x2122;" horiz-adv-x="1277" d="M37 1395v69h459v-69h-201v-590h-78v590h-180zM586 805v659h96l203 -411l202 411h95v-659h-78v530l-189 -381h-61l-190 381v-530h-78z" />
<glyph unicode="&#x25fc;" horiz-adv-x="1085" d="M0 0v1085h1085v-1085h-1085z" />
<glyph unicode="&#xfb01;" horiz-adv-x="956" d="M18 991v90h168v101q0 183 73 261.5t230 78.5q37 0 105 -15v-92q-51 15 -115 15q-99 0 -143.5 -56.5t-44.5 -187.5v-105h229v-90h-229v-991h-105v991h-168zM686 1407q0 30 22 52t52 22t52 -22t22 -52q0 -31 -21.5 -52.5t-52.5 -21.5t-52.5 21.5t-21.5 52.5zM709 0v1081 h104v-1081h-104z" />
<glyph unicode="&#xfb02;" horiz-adv-x="956" d="M18 991v90h168v101q0 183 73 261.5t230 78.5q37 0 105 -15v-92q-51 15 -115 15q-99 0 -143.5 -56.5t-44.5 -187.5v-105h229v-90h-229v-991h-105v991h-168zM709 0v1464l104 72v-1536h-104z" />
</font>
</defs>
</svg>
